<svg width="14" height="12" viewBox="0 0 14 12" fill="none" xmlns="http://www.w3.org/2000/svg">
<path d="M12.8068 0.436258C12.8068 0.436258 14.1018 -0.0687424 13.9934 1.15759C13.9578 1.66259 13.6341 3.43026 13.3821 5.34192L12.5188 11.0053C12.5188 11.0053 12.4468 11.8349 11.7991 11.9793C11.1518 12.1233 10.1804 11.4743 10.0004 11.3299C9.85643 11.2216 7.30243 9.59826 6.4031 8.80492C6.1511 8.58826 5.8631 8.15559 6.4391 7.65059L10.2164 4.04326C10.6481 3.60992 11.0798 2.59992 9.2811 3.82659L4.24443 7.25326C4.24443 7.25326 3.66876 7.61426 2.58976 7.28959L0.251098 6.56792C0.251098 6.56792 -0.612235 6.02692 0.862765 5.48592C4.46043 3.79059 8.88543 2.05926 12.8064 0.435924" fill="white"/>
</svg>
