<svg width="18" height="12" viewBox="0 0 18 12" fill="none" xmlns="http://www.w3.org/2000/svg">
<path d="M7.33341 8.49996L11.6584 5.99996L7.33341 3.49996V8.49996ZM16.9667 1.97496C17.0751 2.36663 17.1501 2.89163 17.2001 3.55829C17.2584 4.22496 17.2834 4.79996 17.2834 5.29996L17.3334 5.99996C17.3334 7.82496 17.2001 9.16663 16.9667 10.025C16.7584 10.775 16.2751 11.2583 15.5251 11.4666C15.1334 11.575 14.4167 11.65 13.3167 11.7C12.2334 11.7583 11.2417 11.7833 10.3251 11.7833L9.00008 11.8333C5.50841 11.8333 3.33341 11.7 2.47508 11.4666C1.72508 11.2583 1.24175 10.775 1.03341 10.025C0.925081 9.63329 0.850081 9.10829 0.800081 8.44163C0.741748 7.77496 0.716748 7.19996 0.716748 6.69996L0.666748 5.99996C0.666748 4.17496 0.800081 2.83329 1.03341 1.97496C1.24175 1.22496 1.72508 0.741626 2.47508 0.533293C2.86675 0.424959 3.58341 0.349959 4.68341 0.299959C5.76675 0.241626 6.75841 0.216626 7.67508 0.216626L9.00008 0.166626C12.4917 0.166626 14.6667 0.299959 15.5251 0.533293C16.2751 0.741626 16.7584 1.22496 16.9667 1.97496Z" fill="white"/>
</svg>
