<svg width="22" height="28" viewBox="0 0 22 28" fill="none" xmlns="http://www.w3.org/2000/svg">
<g clip-path="url(#clip0_4020_278)">
<path fill-rule="evenodd" clip-rule="evenodd" d="M22.0001 9.44439C22.0001 7.41935 20.3585 5.77771 18.3334 5.77771H8.5556C6.53055 5.77771 4.88892 7.41935 4.88892 9.44439V24.1112C4.88892 26.1363 6.53055 27.7778 8.5556 27.7778H18.3334C20.3585 27.7778 22.0001 26.1363 22.0001 24.1112V9.44439ZM19.5556 9.44439C19.5556 8.76938 19.0085 8.22217 18.3334 8.22217H8.5556C7.88059 8.22217 7.33337 8.76938 7.33337 9.44439V24.1112C7.33337 24.7862 7.88059 25.3334 8.5556 25.3334H18.3334C19.0085 25.3334 19.5556 24.7862 19.5556 24.1112V9.44439Z" fill="white"/>
<path d="M3.66668 3.33331H15.889C16.564 3.33331 17.1112 2.78609 17.1112 2.11108C17.1112 1.43607 16.564 0.888855 15.889 0.888855H3.66668C1.64163 0.888855 0 2.53049 0 4.55554V21.6667C0 22.3418 0.547216 22.889 1.22223 22.889C1.89724 22.889 2.44445 22.3418 2.44445 21.6667V4.55554C2.44445 3.88053 2.99167 3.33331 3.66668 3.33331Z" fill="white"/>
</g>
<defs>
<clipPath id="clip0_4020_278">
<rect width="22" height="28" fill="white"/>
</clipPath>
</defs>
</svg>
