<svg width="18" height="16" viewBox="0 0 18 16" fill="none" xmlns="http://www.w3.org/2000/svg">
<path d="M7.84725 8.75L6.80175 10.109C6.77586 10.1425 6.75901 10.1821 6.7528 10.224C6.74659 10.2659 6.75124 10.3087 6.76629 10.3483C6.78134 10.3878 6.80629 10.4229 6.83876 10.4501C6.87123 10.4773 6.91014 10.4957 6.95175 10.5035L8.0475 10.736C8.09136 10.7442 8.13218 10.7642 8.16563 10.7937C8.19908 10.8233 8.22392 10.8613 8.23753 10.9038C8.25113 10.9463 8.25299 10.9917 8.24291 11.0352C8.23282 11.0786 8.21117 11.1186 8.18025 11.1508L6.88275 12.5M3 6.5H12" stroke="#14D1E8" stroke-width="1.5" stroke-linecap="round" stroke-linejoin="round"/>
<path d="M1.5 14.75H13.5M12 9.5H13.2502C13.4827 9.5 13.599 9.5 13.6943 9.5255C13.8214 9.55958 13.9373 9.62652 14.0304 9.7196C14.1235 9.81267 14.1904 9.92861 14.2245 10.0558C14.25 10.151 14.25 10.2673 14.25 10.4998V11.375C14.25 11.6734 14.3685 11.9595 14.5795 12.1705C14.7905 12.3815 15.0766 12.5 15.375 12.5C15.6734 12.5 15.9595 12.3815 16.1705 12.1705C16.3815 11.9595 16.5 11.6734 16.5 11.375V6.65825C16.5 6.2075 16.5 5.98175 16.4355 5.7695C16.371 5.55725 16.2465 5.369 15.996 4.994L15.4163 4.124C15.2882 3.93208 15.1147 3.77473 14.9113 3.66588C14.7079 3.55703 14.4807 3.50006 14.25 3.5M3 14.75V5.75C3 3.629 3 2.56775 3.65925 1.90925C4.31775 1.25 5.379 1.25 7.5 1.25C9.621 1.25 10.6823 1.25 11.3408 1.90925C12 2.56775 12 3.629 12 5.75V14.75H3Z" stroke="#14D1E8" stroke-width="1.5" stroke-linecap="round" stroke-linejoin="round"/>
</svg>
