<svg width="25" height="15" viewBox="0 0 25 15" fill="none" xmlns="http://www.w3.org/2000/svg">
<path d="M19.7917 12.7083V14.7916H7.29167V12.7083C7.29167 12.7083 7.29167 8.54165 13.5417 8.54165C19.7917 8.54165 19.7917 12.7083 19.7917 12.7083ZM16.6667 3.33331C16.6667 2.71525 16.4834 2.11106 16.14 1.59716C15.7966 1.08325 15.3086 0.682715 14.7376 0.446191C14.1665 0.209667 13.5382 0.147782 12.932 0.26836C12.3258 0.388939 11.769 0.686566 11.332 1.12361C10.8949 1.56064 10.5973 2.11747 10.4767 2.72366C10.3561 3.32985 10.418 3.95818 10.6545 4.5292C10.8911 5.10022 11.2916 5.58828 11.8055 5.93166C12.3194 6.27504 12.9236 6.45831 13.5417 6.45831C14.3705 6.45831 15.1653 6.12907 15.7514 5.54302C16.3374 4.95697 16.6667 4.16212 16.6667 3.33331ZM20 8.60415C20.5694 9.12946 21.0285 9.76294 21.3504 10.4676C21.6723 11.1723 21.8507 11.934 21.875 12.7083V14.7916H25V12.7083C25 12.7083 25 9.11456 20 8.60415ZM18.75 0.208314C18.4353 0.208332 18.1225 0.257537 17.8229 0.354147C18.4323 1.22807 18.7591 2.26788 18.7591 3.33331C18.7591 4.39875 18.4323 5.43855 17.8229 6.31248C18.1225 6.40909 18.4353 6.4583 18.75 6.45831C19.5788 6.45831 20.3737 6.12907 20.9597 5.54302C21.5458 4.95697 21.875 4.16212 21.875 3.33331C21.875 2.50451 21.5458 1.70966 20.9597 1.12361C20.3737 0.537554 19.5788 0.208314 18.75 0.208314ZM8.33333 5.41665H5.20833V2.29165H3.125V5.41665H0V7.49998H3.125V10.625H5.20833V7.49998H8.33333V5.41665Z" fill="#14D1E8"/>
</svg>
