<svg width="25" height="19" viewBox="0 0 25 19" fill="none" xmlns="http://www.w3.org/2000/svg">
<path d="M23.5904 8.98144C22.5547 4.29931 20.9961 1.80029 18.6841 1.11767C18.1981 0.975097 17.694 0.903878 17.1875 0.906246C16.5181 0.906246 15.9351 1.06933 15.3184 1.24218C14.5752 1.45068 13.731 1.6875 12.5 1.6875C11.2691 1.6875 10.4243 1.45117 9.67972 1.24267C9.06253 1.06933 8.48001 0.906246 7.81253 0.906246C7.28881 0.904405 6.76738 0.975397 6.26321 1.11718C3.96341 1.79687 2.40579 4.29492 1.35501 8.97851C0.225127 14.0186 0.781279 17.2007 2.91458 17.939C3.207 18.0421 3.51468 18.0952 3.82474 18.0962C5.28616 18.0962 6.45804 16.8789 7.25882 15.8823C8.1636 14.7544 9.22268 14.1821 12.5 14.1821C15.4273 14.1821 16.6387 14.5791 17.6851 15.8823C18.3428 16.7017 18.9644 17.2749 19.5845 17.6357C20.4092 18.1152 21.2334 18.2217 22.0337 17.9468C23.2945 17.5166 24.0171 16.3794 24.1822 14.5659C24.3076 13.1753 24.1143 11.3486 23.5904 8.98144ZM10.1563 8.71875H8.59378V10.2812C8.59378 10.4884 8.51147 10.6872 8.36496 10.8337C8.21844 10.9802 8.01973 11.0625 7.81253 11.0625C7.60533 11.0625 7.40661 10.9802 7.2601 10.8337C7.11359 10.6872 7.03128 10.4884 7.03128 10.2812V8.71875H5.46878C5.26158 8.71875 5.06287 8.63644 4.91635 8.48992C4.76984 8.34341 4.68753 8.1447 4.68753 7.9375C4.68753 7.7303 4.76984 7.53158 4.91635 7.38507C5.06287 7.23856 5.26158 7.15625 5.46878 7.15625H7.03128V5.59375C7.03128 5.38655 7.11359 5.18783 7.2601 5.04132C7.40661 4.89481 7.60533 4.8125 7.81253 4.8125C8.01973 4.8125 8.21844 4.89481 8.36496 5.04132C8.51147 5.18783 8.59378 5.38655 8.59378 5.59375V7.15625H10.1563C10.3635 7.15625 10.5622 7.23856 10.7087 7.38507C10.8552 7.53158 10.9375 7.7303 10.9375 7.9375C10.9375 8.1447 10.8552 8.34341 10.7087 8.48992C10.5622 8.63644 10.3635 8.71875 10.1563 8.71875ZM14.2578 8.91406C14.0647 8.91406 13.8759 8.85678 13.7153 8.74948C13.5547 8.64217 13.4295 8.48965 13.3556 8.31121C13.2817 8.13277 13.2624 7.93641 13.3 7.74698C13.3377 7.55754 13.4307 7.38354 13.5673 7.24696C13.7039 7.11039 13.8779 7.01738 14.0673 6.9797C14.2568 6.94202 14.4531 6.96136 14.6316 7.03527C14.81 7.10918 14.9625 7.23435 15.0698 7.39495C15.1771 7.55554 15.2344 7.74435 15.2344 7.9375C15.2344 8.1965 15.1315 8.44489 14.9484 8.62803C14.7652 8.81117 14.5168 8.91406 14.2578 8.91406ZM16.4063 11.0625C16.213 11.0625 16.0241 11.0052 15.8635 10.8977C15.7028 10.7903 15.5777 10.6377 15.5038 10.4591C15.43 10.2805 15.4108 10.084 15.4487 9.89452C15.4865 9.70502 15.5798 9.53101 15.7166 9.39454C15.8534 9.25806 16.0277 9.16524 16.2173 9.12784C16.4069 9.09043 16.6033 9.11012 16.7817 9.18441C16.9601 9.2587 17.1124 9.38425 17.2194 9.54516C17.3265 9.70608 17.3833 9.89512 17.3828 10.0884C17.3822 10.347 17.279 10.5947 17.096 10.7773C16.9129 10.9599 16.6649 11.0625 16.4063 11.0625ZM16.4063 6.76562C16.2131 6.76562 16.0243 6.70835 15.8637 6.60104C15.7031 6.49373 15.578 6.34122 15.5041 6.16277C15.4301 5.98433 15.4108 5.78797 15.4485 5.59854C15.4862 5.40911 15.5792 5.2351 15.7157 5.09852C15.8523 4.96195 16.0263 4.86894 16.2158 4.83126C16.4052 4.79358 16.6016 4.81292 16.78 4.88683C16.9584 4.96075 17.111 5.08591 17.2183 5.24651C17.3256 5.4071 17.3828 5.59591 17.3828 5.78906C17.3828 6.04806 17.28 6.29645 17.0968 6.47959C16.9137 6.66273 16.6653 6.76562 16.4063 6.76562ZM18.5547 8.91406C18.3616 8.91406 18.1728 8.85678 18.0122 8.74948C17.8516 8.64217 17.7264 8.48965 17.6525 8.31121C17.5786 8.13277 17.5592 7.93641 17.5969 7.74698C17.6346 7.55754 17.7276 7.38354 17.8642 7.24696C18.0008 7.11039 18.1748 7.01738 18.3642 6.9797C18.5536 6.94202 18.75 6.96136 18.9284 7.03527C19.1069 7.10918 19.2594 7.23435 19.3667 7.39495C19.474 7.55554 19.5313 7.74435 19.5313 7.9375C19.5313 8.1965 19.4284 8.44489 19.2453 8.62803C19.0621 8.81117 18.8137 8.91406 18.5547 8.91406Z" fill="#14D1E8"/>
</svg>
