<svg width="17" height="24" viewBox="0 0 17 24" fill="none" xmlns="http://www.w3.org/2000/svg">
<path d="M4.2501 7.125C4.2501 5.33242 5.77479 3.875 7.6501 3.875H9.3501C11.2254 3.875 12.7501 5.33242 12.7501 7.125V7.30781C12.7501 8.41484 12.1604 9.4457 11.1882 10.0398L8.94635 11.416C8.28811 11.8206 7.74666 12.3766 7.37167 13.0332C6.99668 13.6897 6.80015 14.4258 6.8001 15.1738V15.25C6.8001 16.1488 7.55979 16.875 8.5001 16.875C9.44041 16.875 10.2001 16.1488 10.2001 15.25V15.1789C10.2001 14.7625 10.4232 14.3766 10.7845 14.1531L13.0263 12.777C14.9707 11.5785 16.1501 9.52188 16.1501 7.30781V7.125C16.1501 3.53477 13.106 0.625 9.3501 0.625H7.6501C3.89416 0.625 0.850098 3.53477 0.850098 7.125C0.850098 8.02383 1.60979 8.75 2.5501 8.75C3.49041 8.75 4.2501 8.02383 4.2501 7.125ZM8.5001 23.375C9.06368 23.375 9.60419 23.161 10.0027 22.7801C10.4012 22.3991 10.6251 21.8825 10.6251 21.3438C10.6251 20.805 10.4012 20.2884 10.0027 19.9074C9.60419 19.5265 9.06368 19.3125 8.5001 19.3125C7.93651 19.3125 7.39601 19.5265 6.9975 19.9074C6.59898 20.2884 6.3751 20.805 6.3751 21.3438C6.3751 21.8825 6.59898 22.3991 6.9975 22.7801C7.39601 23.161 7.93651 23.375 8.5001 23.375Z" fill="#14D1E8"/>
</svg>
