<svg width="20" height="20" viewBox="0 0 20 20" fill="none" xmlns="http://www.w3.org/2000/svg">
<path d="M0.493873 10.0017C0.494398 10.5195 0.914548 10.9387 1.43231 10.9382C1.95007 10.9377 2.3694 10.5176 2.36887 9.99987L0.493873 10.0017ZM6.66887 1.917L6.2996 1.0553L6.29842 1.0558L6.66887 1.917ZM11.5701 1.417L11.7607 0.499088L11.7578 0.498475L11.5701 1.417ZM17.1428 7.75975C17.2858 8.25737 17.8052 8.54475 18.3028 8.40175C18.8005 8.25875 19.088 7.73937 18.9448 7.24177L17.1428 7.75975ZM17.1365 7.26495C17.0062 7.76613 17.307 8.27787 17.8081 8.40812C18.3092 8.53837 18.821 8.23763 18.9512 7.7365L17.1365 7.26495ZM19.8387 4.32156C19.969 3.82044 19.6683 3.30862 19.1672 3.1784C18.6661 3.04816 18.1542 3.34882 18.024 3.84995L19.8387 4.32156ZM17.7942 8.40438C18.2932 8.54225 18.8096 8.2495 18.9475 7.7505C19.0855 7.25139 18.7926 6.73503 18.2936 6.59713L17.7942 8.40438ZM14.9823 5.68213C14.4832 5.54421 13.9668 5.83699 13.829 6.33605C13.6911 6.83511 13.9838 7.35149 14.483 7.48939L14.9823 5.68213ZM19.8688 9.99987C19.8683 9.482 19.4482 9.06275 18.9305 9.06325C18.4127 9.06375 17.9933 9.48387 17.9938 10.0017L19.8688 9.99987ZM8.7926 18.5845L8.60197 19.5024L8.60497 19.503L8.7926 18.5845ZM3.2199 12.2417C3.07686 11.7441 2.55751 11.4567 2.0599 11.5997C1.56227 11.7427 1.27482 12.2621 1.41786 12.7597L3.2199 12.2417ZM3.22624 12.7365C3.35647 12.2355 3.05581 11.7236 2.55469 11.5934C2.05356 11.4631 1.54175 11.7639 1.41152 12.265L3.22624 12.7365ZM0.524023 15.68C0.393785 16.1811 0.694448 16.6929 1.19557 16.8231C1.69669 16.9534 2.2085 16.6526 2.33874 16.1515L0.524023 15.68ZM2.56857 11.5971C2.06951 11.4592 1.55315 11.752 1.41525 12.251C1.27734 12.7501 1.57011 13.2665 2.06917 13.4044L2.56857 11.5971ZM5.38042 14.3194C5.87949 14.4572 6.39586 14.1645 6.53376 13.6655C6.67167 13.1664 6.3789 12.65 5.87982 12.5121L5.38042 14.3194ZM2.36887 9.99987C2.36734 8.45612 2.81189 6.94489 3.64905 5.64793L2.07371 4.63109C1.04059 6.23165 0.491973 8.09662 0.493873 10.0017L2.36887 9.99987ZM3.64905 5.64793C4.46856 4.37578 5.64923 3.37618 7.03933 2.7782L6.29842 1.0558C4.56576 1.80113 3.09516 3.04545 2.07371 4.63109L3.64905 5.64793ZM7.03816 2.77871C8.40735 2.19195 9.92297 2.03733 11.3825 2.33553L11.7578 0.498475C9.9241 0.123825 8.01985 0.318101 6.2996 1.0553L7.03816 2.77871ZM11.3795 2.33491C12.8505 2.6404 14.195 3.38237 15.2377 4.46392L16.5876 3.16257C15.2831 1.80951 13.601 0.881275 11.7607 0.499088L11.3795 2.33491ZM15.2377 4.46392C16.1325 5.38996 16.7871 6.52215 17.1428 7.75975L18.9448 7.24177C18.5045 5.70937 17.6955 4.3092 16.5876 3.16257L15.2377 4.46392ZM18.9512 7.7365L19.8387 4.32156L18.024 3.84995L17.1365 7.26495L18.9512 7.7365ZM18.2936 6.59713L14.9823 5.68213L14.483 7.48939L17.7942 8.40438L18.2936 6.59713ZM17.9938 10.0017C17.9955 11.5454 17.5508 13.0566 16.7137 14.3536L18.2891 15.3704C19.3222 13.7699 19.8707 11.9049 19.8688 9.99987L17.9938 10.0017ZM16.7137 14.3536C15.8942 15.6259 14.7135 16.6254 13.3235 17.2232L14.0632 18.9462C15.7958 18.2009 17.2677 16.956 18.2891 15.3704L16.7137 14.3536ZM13.3235 17.2232C11.9543 17.81 10.4397 17.9641 8.98035 17.666L8.60497 19.503C10.4386 19.8776 12.343 19.6834 14.0632 18.9462L13.3235 17.2232ZM8.98322 17.6666C7.51235 17.3611 6.16774 16.6191 5.12506 15.5376L3.7752 16.8389C5.07964 18.192 6.7618 19.1202 8.60197 19.5024L8.98322 17.6666ZM5.12506 15.5376C4.23027 14.6115 3.57562 13.4794 3.2199 12.2417L1.41786 12.7597C1.85832 14.2921 2.66727 15.6922 3.7752 16.8389L5.12506 15.5376ZM1.41152 12.265L0.524023 15.68L2.33874 16.1515L3.22624 12.7365L1.41152 12.265ZM2.06917 13.4044L5.38042 14.3194L5.87982 12.5121L2.56857 11.5971L2.06917 13.4044Z" fill="white"/>
</svg>
