<svg width="16" height="18" viewBox="0 0 16 18" fill="none" xmlns="http://www.w3.org/2000/svg">
<path d="M8.00004 1.5C7.19454 1.5 6.61404 2.355 5.45229 4.065L2.14404 8.934C1.22154 10.2923 0.760289 10.9718 0.899039 11.6768C1.03929 12.3825 1.71954 12.8115 3.08154 13.6703L6.38904 15.7575C7.17429 16.2525 7.56654 16.5 8.00004 16.5M8.00004 1.5C8.80554 1.5 9.38604 2.355 10.5478 4.065L13.856 8.934C14.7785 10.2923 15.2398 10.971 15.101 11.6768C14.9608 12.3818 14.2805 12.8115 12.9185 13.6703L9.61104 15.7575C8.82579 16.2525 8.43354 16.5 8.00004 16.5M8.00004 1.5L9.50004 10.5M8.00004 16.5L9.50004 10.5M9.50004 10.5L14.75 11.6768M9.50004 10.5L1.25004 11.6768" stroke="#14D1E8" stroke-width="1.5" stroke-linecap="round" stroke-linejoin="round"/>
</svg>
