<svg width="17" height="21" viewBox="0 0 17 21" fill="none" xmlns="http://www.w3.org/2000/svg">
<path d="M16.3604 9.76661C16.2516 9.87586 16.1222 9.96254 15.9798 10.0217C15.8373 10.0808 15.6846 10.1113 15.5304 10.1113C15.3761 10.1113 15.2234 10.0808 15.081 10.0217C14.9385 9.96254 14.8091 9.87586 14.7003 9.76661L9.67195 4.73829V19.0938C9.67195 19.4046 9.54849 19.7026 9.32872 19.9224C9.10895 20.1422 8.81088 20.2656 8.50008 20.2656C8.18928 20.2656 7.89121 20.1422 7.67144 19.9224C7.45167 19.7026 7.3282 19.4046 7.3282 19.0938V4.73829L2.29793 9.76661C2.07778 9.98676 1.77919 10.1104 1.46785 10.1104C1.15651 10.1104 0.857925 9.98676 0.637775 9.76661C0.417625 9.54646 0.293945 9.24787 0.293945 8.93653C0.293945 8.62519 0.417625 8.3266 0.637775 8.10645L7.66902 1.0752C7.7779 0.965954 7.90726 0.87927 8.04971 0.820123C8.19215 0.760976 8.34487 0.73053 8.4991 0.73053C8.65334 0.73053 8.80606 0.760976 8.9485 0.820123C9.09094 0.87927 9.22031 0.965954 9.32918 1.0752L16.3604 8.10645C16.4697 8.21533 16.5564 8.34469 16.6155 8.48714C16.6747 8.62958 16.7051 8.7823 16.7051 8.93653C16.7051 9.09077 16.6747 9.24349 16.6155 9.38593C16.5564 9.52837 16.4697 9.65774 16.3604 9.76661Z" fill="#14D1E8"/>
</svg>
