<svg width="48" height="48" viewBox="0 0 48 48" fill="none" xmlns="http://www.w3.org/2000/svg">
<circle cx="24" cy="24" r="23" fill="#0C2D39" stroke="#30BBEE" stroke-width="2"/>
<g clip-path="url(#clip0_284_1006)">
<path d="M21.5052 10.0763C21.1224 10.2458 20.9911 10.563 20.9802 11.3395C20.9802 11.6075 20.9583 11.9411 20.9419 12.0724L20.9036 12.313L20.4935 12.4333C19.8755 12.6138 19.1372 12.9145 18.47 13.2591L17.8685 13.5653L17.3052 13.0513C16.9989 12.7669 16.6872 12.4934 16.6107 12.4442C16.4575 12.3403 16.0911 12.3239 15.8614 12.4114C15.7138 12.4661 12.881 15.2333 12.5528 15.6489C12.3778 15.8677 12.3013 16.2122 12.3669 16.4747C12.3833 16.5513 12.6622 16.8958 12.9794 17.2458L13.5536 17.8747L13.2474 18.4763C12.9083 19.1434 12.6075 19.8817 12.4271 20.4997L12.3067 20.9099L12.0661 20.9481C11.9349 20.9645 11.6067 20.9864 11.3442 20.9864C11.0763 20.9919 10.7536 21.0192 10.6169 21.052C10.3325 21.1231 10.07 21.3911 10.0208 21.6591C10.0044 21.7575 9.99347 22.8786 10.0044 24.1474C10.0208 26.395 10.0263 26.4552 10.1357 26.6083C10.3653 26.9145 10.5403 26.9692 11.4317 27.013C11.8802 27.0349 12.2685 27.0731 12.2903 27.1005C12.3122 27.1224 12.3614 27.2645 12.3997 27.4177C12.5255 27.8934 12.9302 28.8997 13.2528 29.5231L13.5591 30.1247L13.045 30.688C12.7607 30.9942 12.4872 31.3059 12.438 31.3825C12.3341 31.5356 12.3177 31.902 12.4052 32.1317C12.4599 32.2794 15.2271 35.1122 15.6427 35.4403C15.8614 35.6153 16.206 35.6919 16.4685 35.6263C16.545 35.6099 16.8896 35.3309 17.2396 35.0138L17.8685 34.4395L18.47 34.7458C19.1263 35.0794 19.8536 35.3747 20.4935 35.5661L20.9036 35.6864L20.9419 35.927C20.9583 36.0583 20.9802 36.3864 20.9802 36.6489C20.9857 36.9169 21.013 37.2395 21.0458 37.3763C21.1169 37.6606 21.3849 37.9231 21.6528 37.9724C21.7513 37.9888 22.8724 37.9997 24.1411 37.9888C26.3888 37.9724 26.4489 37.9669 26.6021 37.8575C26.9083 37.6278 26.963 37.4528 27.0067 36.5614C27.0286 36.113 27.0669 35.7247 27.0942 35.7028C27.1161 35.6809 27.3349 35.6099 27.5755 35.5388C28.1661 35.3692 28.8169 35.1013 29.5224 34.7403L30.1185 34.4395L30.7474 35.0138C31.0974 35.3309 31.4419 35.6099 31.5185 35.6263C31.781 35.6919 32.1255 35.6153 32.3442 35.4403C32.7599 35.1122 35.5271 32.2794 35.5817 32.1317C35.6692 31.902 35.6528 31.5356 35.5489 31.3825C35.4997 31.3059 35.2263 30.9942 34.9419 30.688L34.4278 30.1247L34.7341 29.5231C35.0732 28.8669 35.3685 28.1395 35.5599 27.4997L35.6802 27.0895L35.9208 27.0513C36.0521 27.0349 36.3857 27.013 36.6536 27.013C37.4357 27.002 37.7474 26.8708 37.9169 26.477C38.0263 26.22 38.0263 21.7794 37.9169 21.5224C37.7474 21.1286 37.4357 20.9974 36.6536 20.9864C36.3857 20.9864 36.0521 20.9645 35.9208 20.9481L35.6802 20.9099L35.5599 20.4997C35.3685 19.8599 35.0732 19.1325 34.7341 18.4763L34.4278 17.8747L34.9419 17.3114C35.2263 17.0052 35.4997 16.6934 35.5489 16.6169C35.6528 16.4638 35.6692 16.0974 35.5817 15.8677C35.5271 15.72 32.7599 12.8872 32.3442 12.5591C32.1255 12.3841 31.781 12.3075 31.5185 12.3731C31.4419 12.3895 31.0974 12.6684 30.7474 12.9856L30.1185 13.5599L29.4732 13.2372C28.713 12.8489 28.2427 12.6575 27.5755 12.4552L27.0833 12.3075L27.045 12.0724C27.0286 11.9411 27.0067 11.6075 27.0067 11.3395C26.9958 10.5575 26.8646 10.2458 26.4708 10.0763C26.2192 9.96688 21.7458 9.96688 21.5052 10.0763ZM25.3661 11.6786C25.3661 11.7059 25.388 12.0614 25.4099 12.477C25.47 13.527 25.5466 13.62 26.5638 13.877C27.6028 14.1395 28.4724 14.5114 29.4513 15.0966C30.2005 15.5505 30.4083 15.5177 31.1302 14.8614C31.3763 14.6372 31.6169 14.4239 31.6716 14.3802C31.7591 14.3091 31.8521 14.3856 32.7216 15.2552C33.2466 15.7747 33.6732 16.2231 33.6732 16.2395C33.6732 16.2614 33.4599 16.5075 33.2028 16.7864C32.47 17.5903 32.4372 17.7763 32.8966 18.5419C33.4708 19.4989 33.8591 20.4231 34.1161 21.4239C34.3732 22.4466 34.4661 22.5231 35.5161 22.5833C35.9317 22.6052 36.2872 22.627 36.3146 22.627C36.3364 22.6325 36.3528 23.245 36.3528 23.9997C36.3528 24.7489 36.3364 25.3669 36.3146 25.3724C36.2872 25.3724 35.9317 25.3942 35.5161 25.4161C34.4661 25.4763 34.3732 25.5528 34.1161 26.5755C33.8591 27.5763 33.4708 28.5005 32.8966 29.4575C32.4372 30.2231 32.47 30.4091 33.2028 31.213C33.4599 31.4919 33.6732 31.738 33.6732 31.7599C33.6732 31.7763 33.2466 32.2247 32.7216 32.7442C31.8521 33.6138 31.7591 33.6903 31.6716 33.6192C31.6169 33.5755 31.3763 33.3622 31.1302 33.138C30.4083 32.4817 30.2005 32.4489 29.4513 32.9028C28.4942 33.477 27.57 33.8653 26.5692 34.1224C25.5466 34.3794 25.47 34.4724 25.4099 35.5224C25.388 35.938 25.3661 36.2934 25.3661 36.3153C25.3607 36.3427 24.7482 36.3591 23.9935 36.3591C23.2442 36.3591 22.6263 36.3427 22.6208 36.3153C22.6208 36.2934 22.5989 35.938 22.5771 35.5224C22.5169 34.4942 22.4294 34.3739 21.5052 34.1388C20.4388 33.8708 19.4599 33.4606 18.5466 32.9083C17.77 32.438 17.5841 32.4708 16.7802 33.2091C16.5013 33.4661 16.2552 33.6794 16.2388 33.6794C16.1896 33.6794 14.3138 31.8036 14.3138 31.7599C14.3138 31.738 14.5271 31.4919 14.7841 31.213C15.5169 30.4091 15.5497 30.2231 15.0903 29.4575C14.5161 28.5005 14.1278 27.5763 13.8708 26.5755C13.6138 25.5528 13.5208 25.4763 12.4708 25.4161C12.0552 25.3942 11.6997 25.3724 11.6778 25.3724C11.6232 25.3669 11.6232 22.6325 11.6778 22.627C11.6997 22.627 12.0552 22.6052 12.4708 22.5833C13.5208 22.5231 13.6138 22.4466 13.8763 21.4075C14.1278 20.4122 14.5107 19.5044 15.0903 18.5419C15.5497 17.7763 15.5169 17.5903 14.7841 16.7864C14.5271 16.5075 14.3138 16.2614 14.3138 16.245C14.3138 16.1958 16.1896 14.32 16.2333 14.32C16.2552 14.32 16.5013 14.5333 16.7802 14.7903C17.5841 15.5286 17.77 15.5614 18.5466 15.0911C19.4599 14.5388 20.4388 14.1286 21.5052 13.8606C22.4294 13.6255 22.5169 13.5052 22.5771 12.477C22.5989 12.0614 22.6208 11.7059 22.6208 11.6786C22.6263 11.6567 23.2442 11.6403 23.9935 11.6403C24.7482 11.6403 25.3607 11.6567 25.3661 11.6786Z" fill="#14D1E8"/>
<path d="M22.5234 15.3054C18.7008 15.9835 15.7859 18.9968 15.2555 22.814C15.2227 23.0492 15.1953 23.596 15.1953 24.0281C15.1953 27.1288 16.7977 29.9452 19.4883 31.5749C21.5445 32.8163 24.1586 33.1445 26.5266 32.4499C28.9492 31.7445 31.0273 29.907 32.0719 27.5445C33.0453 25.3515 33.0562 22.7101 32.0937 20.4952C31.0711 18.1437 28.9547 16.2624 26.5266 15.5515C25.2906 15.1851 23.7266 15.0921 22.5234 15.3054ZM25.1812 16.9187C26.6906 17.1812 27.9867 17.8538 29.0586 18.9367C30.4531 20.3367 31.1641 22.0484 31.1641 24.0007C31.1641 25.9531 30.4531 27.6757 29.0641 29.0648C28.3477 29.7757 27.2758 30.4812 26.5867 30.6945L26.4609 30.7327V28.0531V25.3679H27.5437C28.4625 25.3679 28.6484 25.3515 28.8125 25.2695C29.2391 25.0562 29.3867 24.4929 29.1242 24.0992C28.818 23.6507 24.525 18.6304 24.3828 18.5593C24.1805 18.4554 23.8195 18.4554 23.6172 18.5593C23.475 18.6359 19.1875 23.6507 18.8758 24.0992C18.6133 24.4929 18.7609 25.0562 19.1875 25.2695C19.3516 25.3515 19.5375 25.3679 20.4617 25.3679H21.5391V28.0531V30.7327L21.4187 30.6945C21.1453 30.6179 20.3195 30.1749 19.9148 29.9015C19.0016 29.2781 18.0117 28.1187 17.525 27.1015C16.7812 25.5538 16.6227 23.6124 17.1148 21.9554C17.7875 19.6913 19.6852 17.7937 21.9547 17.1156C22.8953 16.8367 24.2297 16.7546 25.1812 16.9187ZM25.3453 22.1304L26.6687 23.6999L26.0289 23.7273C25.2906 23.7601 25.0992 23.8367 24.9297 24.1648C24.8258 24.3726 24.8203 24.482 24.8203 27.7742V31.1648H24H23.1797V27.7742C23.1797 24.482 23.1742 24.3726 23.0703 24.1648C22.9008 23.8367 22.7094 23.7601 21.9711 23.7273L21.3312 23.6999L22.6547 22.1304C23.3766 21.2663 23.9836 20.5609 24 20.5609C24.0164 20.5609 24.6234 21.2663 25.3453 22.1304Z" fill="#14D1E8"/>
</g>
<defs>
<clipPath id="clip0_284_1006">
<rect width="28" height="28" fill="white" transform="translate(10 10)"/>
</clipPath>
</defs>
</svg>
