<svg width="48" height="48" viewBox="0 0 48 48" fill="none" xmlns="http://www.w3.org/2000/svg">
<circle cx="24" cy="24" r="23" fill="#0C2D39" stroke="#30BBEE" stroke-width="2"/>
<path d="M17.463 25L16.069 26.812C16.0345 26.8567 16.012 26.9095 16.0037 26.9653C15.9955 27.0212 16.0016 27.0782 16.0217 27.131C16.0418 27.1838 16.0751 27.2305 16.1184 27.2668C16.1616 27.303 16.2135 27.3275 16.269 27.338L17.73 27.648C17.7885 27.659 17.8429 27.6856 17.8875 27.725C17.9321 27.7643 17.9652 27.8151 17.9834 27.8717C18.0015 27.9284 18.004 27.9889 17.9905 28.0469C17.9771 28.1048 17.9482 28.1581 17.907 28.201L16.177 30M11 22H23" stroke="#14D1E8" stroke-width="2" stroke-linecap="round" stroke-linejoin="round"/>
<path d="M9 33H25M23 26H24.667C24.977 26 25.132 26 25.259 26.034C25.4285 26.0794 25.5831 26.1687 25.7072 26.2928C25.8313 26.4169 25.9206 26.5715 25.966 26.741C26 26.868 26 27.023 26 27.333V28.5C26 28.8978 26.158 29.2794 26.4393 29.5607C26.7206 29.842 27.1022 30 27.5 30C27.8978 30 28.2794 29.842 28.5607 29.5607C28.842 29.2794 29 28.8978 29 28.5V22.211C29 21.61 29 21.309 28.914 21.026C28.828 20.743 28.662 20.492 28.328 19.992L27.555 18.832C27.3842 18.5761 27.153 18.3663 26.8817 18.2212C26.6105 18.076 26.3076 18.0001 26 18M11 33V21C11 18.172 11 16.757 11.879 15.879C12.757 15 14.172 15 17 15C19.828 15 21.243 15 22.121 15.879C23 16.757 23 18.172 23 21V33H11Z" stroke="#14D1E8" stroke-width="2" stroke-linecap="round" stroke-linejoin="round"/>
<path d="M33.292 24.5H39.7087" stroke="#14D1E8" stroke-width="1.67" stroke-linecap="round" stroke-linejoin="round"/>
<path d="M36.5 21.2916V27.7083" stroke="#14D1E8" stroke-width="1.67" stroke-linecap="round" stroke-linejoin="round"/>
</svg>
