<svg width="48" height="48" viewBox="0 0 48 48" fill="none" xmlns="http://www.w3.org/2000/svg">
<circle cx="24" cy="24" r="23" fill="#0C2D39" stroke="#30BBEE" stroke-width="2"/>
<path d="M28.5173 23.4825L13.1665 38.8334" stroke="#14D1E8" stroke-width="2.16667" stroke-linecap="round" stroke-linejoin="round"/>
<path d="M15.3548 28C15.0374 27.7348 14.777 27.4081 14.5893 27.0395C14.4017 26.671 14.2906 26.2682 14.2628 25.8555C14.235 25.4429 14.2911 25.0288 14.4277 24.6384C14.5642 24.248 14.7785 23.8893 15.0575 23.584C15.3365 23.2786 15.6744 23.033 16.0509 22.8618C16.4274 22.6906 16.8347 22.5975 17.2482 22.588C17.6617 22.5785 18.0729 22.6529 18.4568 22.8066C18.8408 22.9604 19.1896 23.1903 19.4823 23.4825C19.1901 23.1898 18.9602 22.841 18.8064 22.457C18.6527 22.073 18.5783 21.6619 18.5878 21.2484C18.5973 20.8349 18.6904 20.4276 18.8616 20.0511C19.0328 19.6746 19.2785 19.3366 19.5838 19.0577C19.8892 18.7787 20.2478 18.5644 20.6383 18.4278C21.0287 18.2913 21.4427 18.2352 21.8553 18.263C22.268 18.2908 22.6708 18.4018 23.0394 18.5895C23.4079 18.7772 23.7347 19.0376 23.9998 19.355C24.265 19.0376 24.5918 18.7772 24.9603 18.5895C25.3289 18.4018 25.7317 18.2908 26.1443 18.263C26.557 18.2352 26.971 18.2913 27.3614 18.4278C27.7518 18.5644 28.1105 18.7787 28.4159 19.0577C28.7212 19.3366 28.9669 19.6746 29.1381 20.0511C29.3092 20.4276 29.4024 20.8349 29.4119 21.2484C29.4213 21.6619 29.347 22.073 29.1932 22.457C29.0395 22.841 28.8096 23.1898 28.5173 23.4825C28.81 23.1903 29.1589 22.9604 29.5428 22.8066C29.9268 22.6529 30.3379 22.5785 30.7514 22.588C31.1649 22.5975 31.5722 22.6906 31.9488 22.8618C32.3253 23.033 32.6632 23.2786 32.9422 23.584C33.2212 23.8893 33.4354 24.248 33.572 24.6384C33.7086 25.0288 33.7647 25.4429 33.7369 25.8555C33.7091 26.2682 33.598 26.671 33.4103 27.0395C33.2226 27.4081 32.9622 27.7348 32.6448 28C32.9622 28.2652 33.2226 28.5919 33.4103 28.9605C33.598 29.3291 33.7091 29.7318 33.7369 30.1445C33.7647 30.5572 33.7086 30.9712 33.572 31.3616C33.4354 31.752 33.2212 32.1107 32.9422 32.416C32.6632 32.7214 32.3253 32.9671 31.9488 33.1382C31.5722 33.3094 31.1649 33.4026 30.7514 33.412C30.3379 33.4215 29.9268 33.3472 29.5428 33.1934C29.1589 33.0397 28.81 32.8098 28.5173 32.5175C28.8096 32.8102 29.0395 33.1591 29.1932 33.543C29.347 33.927 29.4213 34.3381 29.4119 34.7516C29.4024 35.1651 29.3092 35.5724 29.1381 35.9489C28.9669 36.3255 28.7212 36.6634 28.4159 36.9424C28.1105 37.2214 27.7518 37.4356 27.3614 37.5722C26.971 37.7088 26.557 37.7649 26.1443 37.7371C25.7317 37.7093 25.3289 37.5982 24.9603 37.4105C24.5918 37.2228 24.265 36.9624 23.9998 36.645C23.7347 36.9624 23.4079 37.2228 23.0394 37.4105C22.6708 37.5982 22.268 37.7093 21.8553 37.7371C21.4427 37.7649 21.0287 37.7088 20.6383 37.5722C20.2478 37.4356 19.8892 37.2214 19.5838 36.9424C19.2785 36.6634 19.0328 36.3255 18.8616 35.9489C18.6904 35.5724 18.5973 35.1651 18.5878 34.7516C18.5783 34.3381 18.6527 33.927 18.8064 33.543C18.9602 33.1591 19.1901 32.8102 19.4823 32.5175C18.8833 33.0677 18.0902 33.3574 17.2775 33.3229C16.4649 33.2884 15.6992 32.9324 15.149 32.3334C14.5988 31.7343 14.3091 30.9412 14.3436 30.1285C14.3782 29.3159 14.7341 28.5502 15.3332 28" stroke="#14D1E8" stroke-width="2.16667" stroke-linecap="round" stroke-linejoin="round"/>
<path d="M19.4824 23.4825L28.5174 32.5175" stroke="#14D1E8" stroke-width="2.16667" stroke-linecap="round" stroke-linejoin="round"/>
<path d="M26.9168 8.41667L24.0002 5.5L21.0835 8.41667" stroke="#14D1E8" stroke-width="1.16667" stroke-linecap="round" stroke-linejoin="round"/>
<path d="M26.9168 12.5L24.0002 9.58331L21.0835 12.5" stroke="#14D1E8" stroke-width="1.16667" stroke-linecap="round" stroke-linejoin="round"/>
</svg>
