<svg width="48" height="48" viewBox="0 0 48 48" fill="none" xmlns="http://www.w3.org/2000/svg">
<circle cx="24" cy="24" r="23" fill="#0C2D39" stroke="#30BBEE" stroke-width="2"/>
<path d="M23.9996 17.1666C22.8361 17.1666 21.9976 18.4016 20.3195 20.8716L15.5409 27.9046C14.2084 29.8665 13.5422 30.848 13.7426 31.8664C13.9452 32.8858 14.9278 33.5055 16.8951 34.7459L21.6726 37.7608C22.8068 38.4758 23.3734 38.8333 23.9996 38.8333M23.9996 17.1666C25.1631 17.1666 26.0016 18.4016 27.6797 20.8716L32.4583 27.9046C33.7908 29.8665 34.457 30.847 34.2566 31.8664C34.054 32.8847 33.0714 33.5055 31.1041 34.7459L26.3266 37.7608C25.1923 38.4758 24.6258 38.8333 23.9996 38.8333M23.9996 17.1666L26.1663 30.1666M23.9996 38.8333L26.1663 30.1666M26.1663 30.1666L33.7496 31.8664M26.1663 30.1666L14.2496 31.8664" stroke="#14D1E8" stroke-width="2.16667" stroke-linecap="round" stroke-linejoin="round"/>
<path d="M26.9168 8.41667L24.0002 5.5L21.0835 8.41667" stroke="#14D1E8" stroke-width="1.16667" stroke-linecap="round" stroke-linejoin="round"/>
<path d="M26.9168 12.5L24.0002 9.58331L21.0835 12.5" stroke="#14D1E8" stroke-width="1.16667" stroke-linecap="round" stroke-linejoin="round"/>
</svg>
