<svg width="48" height="48" viewBox="0 0 48 48" fill="none" xmlns="http://www.w3.org/2000/svg">
<circle cx="24" cy="24" r="23" fill="#0C2D39" stroke="#30BBEE" stroke-width="2"/>
<g clip-path="url(#clip0_278_692)">
<path d="M33.4997 25.25C32.8285 25.25 32.3447 25.9625 31.3766 27.3875L28.6197 31.445C27.851 32.5769 27.4666 33.1431 27.5822 33.7306C27.6991 34.3188 28.266 34.6763 29.401 35.3919L32.1572 37.1313C32.8116 37.5438 33.1385 37.75 33.4997 37.75M33.4997 25.25C34.171 25.25 34.6547 25.9625 35.6229 27.3875L38.3797 31.445C39.1485 32.5769 39.5329 33.1425 39.4172 33.7306C39.3004 34.3181 38.7335 34.6763 37.5985 35.3919L34.8422 37.1313C34.1879 37.5438 33.861 37.75 33.4997 37.75M33.4997 25.25L34.7497 32.75M33.4997 37.75L34.7497 32.75M34.7497 32.75L39.1247 33.7306M34.7497 32.75L27.8747 33.7306" stroke="#14D1E8" stroke-width="1.25" stroke-linecap="round" stroke-linejoin="round"/>
</g>
<g clip-path="url(#clip1_278_692)">
<path d="M23.4997 8.25C22.8285 8.25 22.3447 8.9625 21.3766 10.3875L18.6197 14.445C17.851 15.5769 17.4666 16.1431 17.5822 16.7306C17.6991 17.3188 18.266 17.6763 19.401 18.3919L22.1572 20.1313C22.8116 20.5438 23.1385 20.75 23.4997 20.75M23.4997 8.25C24.171 8.25 24.6547 8.9625 25.6229 10.3875L28.3797 14.445C29.1485 15.5769 29.5329 16.1425 29.4172 16.7306C29.3004 17.3181 28.7335 17.6763 27.5985 18.3919L24.8422 20.1313C24.1879 20.5438 23.861 20.75 23.4997 20.75M23.4997 8.25L24.7497 15.75M23.4997 20.75L24.7497 15.75M24.7497 15.75L29.1247 16.7306M24.7497 15.75L17.8747 16.7306" stroke="#14D1E8" stroke-width="1.25" stroke-linecap="round" stroke-linejoin="round"/>
</g>
<g clip-path="url(#clip2_278_692)">
<path d="M14.4997 25.25C13.8285 25.25 13.3447 25.9625 12.3766 27.3875L9.61975 31.445C8.851 32.5769 8.46662 33.1431 8.58225 33.7306C8.69912 34.3188 9.266 34.6763 10.401 35.3919L13.1572 37.1313C13.8116 37.5438 14.1385 37.75 14.4997 37.75M14.4997 25.25C15.171 25.25 15.6547 25.9625 16.6229 27.3875L19.3797 31.445C20.1485 32.5769 20.5329 33.1425 20.4172 33.7306C20.3004 34.3181 19.7335 34.6763 18.5985 35.3919L15.8422 37.1313C15.1879 37.5438 14.861 37.75 14.4997 37.75M14.4997 25.25L15.7497 32.75M14.4997 37.75L15.7497 32.75M15.7497 32.75L20.1247 33.7306M15.7497 32.75L8.87475 33.7306" stroke="#14D1E8" stroke-width="1.25" stroke-linecap="round" stroke-linejoin="round"/>
</g>
<defs>
<clipPath id="clip0_278_692">
<rect width="15" height="15" fill="white" transform="translate(26 24)"/>
</clipPath>
<clipPath id="clip1_278_692">
<rect width="15" height="15" fill="white" transform="translate(16 7)"/>
</clipPath>
<clipPath id="clip2_278_692">
<rect width="15" height="15" fill="white" transform="translate(7 24)"/>
</clipPath>
</defs>
</svg>
