<svg width="48" height="48" viewBox="0 0 48 48" fill="none" xmlns="http://www.w3.org/2000/svg">
<circle cx="24" cy="24" r="23" fill="#0C2D39" stroke="#30BBEE" stroke-width="2"/>
<g clip-path="url(#clip0_284_997)">
<path d="M23.7611 15.066C23.6595 15.1218 22.1767 16.9855 22.07 17.1836C21.9888 17.3461 21.7552 18.5699 21.7907 18.6918C21.8415 18.9101 22.0396 19.0625 22.2732 19.0625C22.5321 19.0625 22.6997 18.9101 22.781 18.6054L22.8368 18.3972L23.04 18.575L23.238 18.7578H23.9997H24.7614L24.9595 18.58C25.1321 18.4226 25.1626 18.4074 25.188 18.4886C25.1982 18.5394 25.4114 19.4941 25.6501 20.6062L26.0868 22.6375L26.8435 24.0492L27.6052 25.466V26.832V28.2031H27.331H27.0568L27.0364 27.3754L27.0161 26.5527L25.7009 24.1203C24.5634 22.0281 24.3603 21.6828 24.2232 21.6168C24.0302 21.5254 23.7458 21.5609 23.6341 21.6929C23.5935 21.7386 22.9689 22.866 22.2529 24.1914L20.9529 26.6035V27.4007V28.2031H20.6736H20.3943V26.8371V25.4711L21.156 24.0492C22.0142 22.4445 22.0497 22.3328 21.7603 22.089C21.5724 21.9265 21.3236 21.9164 21.1407 22.0586C21.0696 22.1144 20.6786 22.7847 20.247 23.5921L19.4751 25.0293L18.7642 25.5371C18.3681 25.8164 18.0279 26.05 18.0075 26.0601C17.9821 26.0703 17.9568 25.7961 17.9466 25.4609C17.9314 24.8566 17.9263 24.8414 17.7892 24.7195C17.5759 24.5367 17.3118 24.5519 17.0224 24.7754C16.2911 25.3339 15.4177 26.0296 15.3821 26.0855C15.3618 26.1211 15.3314 26.5679 15.3161 27.0808L15.2907 28.0152L14.7068 28.4418C14.3868 28.6754 14.1177 28.8632 14.1126 28.8632C14.1075 28.8632 13.9552 28.6703 13.7724 28.4367C13.5896 28.2031 13.4017 27.9949 13.356 27.9797C13.3103 27.9644 12.8685 27.9492 12.3708 27.9492C11.4821 27.9492 11.4568 27.9543 11.3196 28.0711L11.1775 28.1929L11.1622 31.7425C11.1521 34.3425 11.1673 35.3226 11.2079 35.4293C11.3196 35.6984 11.4364 35.7187 12.7466 35.7187H13.945L14.1075 35.5714C14.2446 35.4496 14.27 35.3886 14.2904 35.1144C14.3056 34.9316 14.3361 34.8047 14.3716 34.8047C14.4021 34.8047 15.2298 34.6675 16.2048 34.505C17.1849 34.3375 17.9923 34.2156 18.0075 34.2257C18.0177 34.241 17.5099 35.2922 16.8751 36.5617L15.7224 38.8672V39.7812C15.7224 40.6851 15.7224 40.7004 15.8443 40.8222C15.9864 40.9644 16.1794 41.0254 16.3571 40.9797C16.4232 40.9644 17.2407 40.1976 18.231 39.2175L19.9829 37.4859L20.9732 37.9988L21.9583 38.5117H23.9286H25.8939L26.9603 37.9988L28.0267 37.4859L29.2251 38.6742C29.8853 39.3242 30.6927 40.1214 31.0177 40.4363L31.6169 41.0152L31.8302 40.9847C31.9775 40.9644 32.0841 40.9136 32.1603 40.8222C32.272 40.6953 32.2771 40.6496 32.2771 39.7863V38.8824L31.1294 36.5617C30.4997 35.282 29.9919 34.2308 30.0021 34.2207C30.0122 34.2105 30.8298 34.3375 31.82 34.5C32.8103 34.6675 33.638 34.8047 33.6532 34.8047C33.6736 34.8047 33.6989 34.9468 33.7091 35.1144C33.7294 35.3886 33.7548 35.4496 33.8919 35.5714L34.0544 35.7187H35.2529C36.563 35.7187 36.6798 35.6984 36.7915 35.4293C36.8321 35.3226 36.8474 34.3425 36.8372 31.7425L36.822 28.1929L36.6798 28.0711C36.5427 27.9543 36.5173 27.9492 35.6286 27.9492C35.131 27.9492 34.6892 27.9644 34.6435 27.9797C34.5978 27.9949 34.4099 28.2031 34.2271 28.4418C33.9986 28.7312 33.8716 28.8531 33.8361 28.8226C33.8005 28.7972 33.5415 28.6144 33.2572 28.4113L32.7341 28.0406V27.1062V26.1718L32.5716 25.9941C32.4802 25.8976 32.0486 25.5472 31.6169 25.2121C30.9111 24.6636 30.8095 24.5976 30.6267 24.6027C30.515 24.6027 30.388 24.6281 30.3474 24.6636C30.1493 24.8261 30.1189 24.9175 30.0935 25.5218L30.0681 26.1312L29.2962 25.5777L28.5294 25.0293L27.788 23.6531L27.0466 22.2769L26.5134 19.7937C26.2189 18.4277 25.9599 17.2648 25.9345 17.2089C25.8583 17.0261 24.3552 15.132 24.2384 15.066C24.1775 15.0304 24.0708 15.005 23.9997 15.005C23.9286 15.005 23.822 15.0304 23.7611 15.066ZM24.406 16.8535L24.7767 17.341L24.5837 17.539C24.3857 17.7421 24.3806 17.7421 23.9997 17.7421C23.6189 17.7421 23.6138 17.7421 23.4157 17.539L23.2228 17.341L23.5935 16.8535C23.7966 16.5894 23.9794 16.3711 23.9997 16.3711C24.02 16.3711 24.2029 16.5894 24.406 16.8535ZM22.8724 26.2582C22.5271 26.6644 22.1818 27.0707 22.1056 27.157L21.9634 27.3144L21.9786 27.0605C21.9939 26.8421 22.1005 26.6086 22.7302 25.4457L23.4665 24.0898L23.4818 24.8058L23.497 25.5168L22.8724 26.2582ZM25.97 27.025L25.9548 27.2586L25.2337 26.3953L24.5075 25.5371V24.8007V24.0644L25.2489 25.4304C25.9294 26.6898 25.9853 26.8117 25.97 27.025ZM16.9411 27.5074V28.8886L16.6669 29.107C16.5146 29.2238 16.3775 29.3203 16.3622 29.3203C16.347 29.3203 16.3318 28.7058 16.3318 27.9593V26.5933L16.6263 26.3597C16.7837 26.2328 16.9208 26.1261 16.931 26.1261C16.9361 26.1211 16.9411 26.7457 16.9411 27.5074ZM31.4595 26.38L31.7185 26.5882V27.9543C31.7185 29.498 31.7489 29.4066 31.3275 29.041L31.1091 28.8531V27.5125C31.1091 26.7761 31.1294 26.1718 31.1548 26.1718C31.1751 26.1718 31.3122 26.2632 31.4595 26.38ZM18.9927 32.2757C18.7794 32.7023 18.6017 33.0578 18.5966 33.0629C18.5915 33.0679 17.6876 33.2254 16.5857 33.4082C15.4837 33.591 14.5189 33.7535 14.4427 33.7687L14.3005 33.7992V31.8949V29.9906L14.7982 29.63L15.2907 29.2695L15.3161 29.9144C15.3466 30.7472 15.4279 30.8945 15.8392 30.8945C15.9915 30.8945 16.1591 30.7879 16.9259 30.1886C17.4388 29.7925 17.8603 29.4269 17.8958 29.3507C17.9364 29.2593 17.9568 28.9089 17.9568 28.2894V27.3601L18.6575 26.8625L19.3532 26.3648L19.3685 28.9343L19.3786 31.5039L18.9927 32.2757ZM29.3775 26.8828L30.0833 27.3906L30.1036 28.3453C30.1138 29.0359 30.1392 29.3203 30.19 29.3964C30.2255 29.4523 30.6572 29.8129 31.1497 30.1937C31.947 30.8183 32.0689 30.8945 32.2415 30.8945C32.3888 30.8945 32.4751 30.8589 32.5868 30.7472C32.7341 30.6 32.7341 30.5949 32.7341 29.9601C32.7341 29.6097 32.7493 29.3203 32.7747 29.3254C32.795 29.3254 33.0032 29.4726 33.2419 29.6453L33.6736 29.9652L33.6888 31.8797L33.6989 33.7992L33.5923 33.7738C33.5314 33.7586 32.5665 33.591 31.4392 33.4031L29.3978 33.0629L29.0118 32.2859L28.6208 31.5039V28.9394C28.6208 27.5277 28.631 26.375 28.6462 26.375C28.6614 26.375 28.9864 26.6035 29.3775 26.8828ZM25.0611 27.7714C25.6196 28.4418 26.1529 29.041 26.2392 29.1019C26.3864 29.2086 26.4626 29.2187 27.0009 29.2187H27.6052V30.3308V31.4429L26.7114 32.2605L25.8177 33.0781H23.9591H22.0954L21.2474 32.2605L20.3943 31.4429V30.3308V29.2187H20.9782C21.2982 29.2187 21.613 29.1933 21.679 29.1629C21.745 29.1324 22.2884 28.5281 22.8876 27.8172C23.4818 27.1062 23.9896 26.5324 24.0048 26.5375C24.0251 26.5476 24.4974 27.1011 25.0611 27.7714ZM13.097 29.2136L13.2849 29.4625V32.0828V34.7031H12.7263H12.1677V31.8339V28.9648H12.5384L12.904 28.9699L13.097 29.2136ZM35.8318 31.8339V34.7031H35.2732H34.7146V32.0828V29.4625L34.9075 29.2136L35.0954 28.9699L35.4661 28.9648H35.8318V31.8339ZM27.6052 34.6929V36.5617L26.7927 36.9527L25.9802 37.3386L25.5181 36.5515C25.2591 36.1199 24.995 35.7238 24.9239 35.6679C24.8122 35.5765 24.7157 35.5664 23.9489 35.5664C23.1669 35.5664 23.0907 35.5765 22.9689 35.673C22.8927 35.7289 22.6236 36.125 22.3646 36.5566L21.8974 37.3386L21.1458 36.9476L20.3943 36.5566V34.7082V32.8648L21.0341 33.464L21.679 34.0683L23.9236 34.0836L26.1681 34.0988L26.4169 33.8957C26.554 33.7839 26.8739 33.4996 27.1228 33.2609C27.3767 33.0222 27.5849 32.8293 27.595 32.8242C27.6001 32.8242 27.6052 33.6672 27.6052 34.6929ZM18.0736 37.9379C17.3525 38.6437 16.7583 39.1972 16.7482 39.1769C16.7431 39.1566 17.322 37.9531 18.0431 36.5007L19.3532 33.8652L19.3685 35.2617L19.3837 36.6582L18.0736 37.9379ZM29.9716 36.4957C30.6825 37.9328 31.2614 39.1312 31.2614 39.1668C31.2614 39.2023 30.6673 38.6539 29.9411 37.948L28.6208 36.6683V35.2769C28.6208 34.5152 28.6361 33.8906 28.6513 33.8906C28.6665 33.8906 29.2607 35.0636 29.9716 36.4957ZM24.6091 37.0136C24.7462 37.2523 24.863 37.4605 24.863 37.4707C24.863 37.4859 24.4415 37.4961 23.9236 37.4961H22.9892L23.2532 37.039L23.5173 36.582H23.9337H24.3501L24.6091 37.0136Z" fill="#14D1E8"/>
<path d="M21.5573 20.1746C21.1764 20.5605 21.5776 21.1953 22.0753 20.9922C22.2784 20.9058 22.3749 20.7535 22.3749 20.5199C22.3749 20.2508 22.1565 20.0273 21.8925 20.0273C21.7553 20.0273 21.669 20.068 21.5573 20.1746Z" fill="#14D1E8"/>
</g>
<path d="M26.9168 8.41667L24.0002 5.5L21.0835 8.41667" stroke="#14D1E8" stroke-width="1.16667" stroke-linecap="round" stroke-linejoin="round"/>
<path d="M26.9168 12.5L24.0002 9.58331L21.0835 12.5" stroke="#14D1E8" stroke-width="1.16667" stroke-linecap="round" stroke-linejoin="round"/>
<defs>
<clipPath id="clip0_284_997">
<rect width="26" height="26" fill="white" transform="translate(11 15)"/>
</clipPath>
</defs>
</svg>
